<?xml version="1.0" encoding="UTF-8" standalone="no"?>
<!DOCTYPE svg PUBLIC "-//W3C//DTD SVG 1.1//EN"
 "http://www.w3.org/Graphics/SVG/1.1/DTD/svg11.dtd">
<!-- Generated by graphviz version 2.40.1 (20161225.0304)
 -->
<!-- Title: libmutt Pages: 1 -->
<svg width="640pt" height="378pt"
 viewBox="0.00 0.00 639.50 378.00" xmlns="http://www.w3.org/2000/svg" xmlns:xlink="http://www.w3.org/1999/xlink">
<g id="graph0" class="graph" transform="scale(1 1) rotate(0) translate(4 374)">
<title>libmutt</title>
<polygon fill="#ffffff" stroke="transparent" points="-4,4 -4,-374 635.5,-374 635.5,4 -4,4"/>
<!-- base64 -->
<g id="node1" class="node">
<title>base64</title>
<path fill="none" stroke="#000000" stroke-width="1.5" d="M7,-.5C7,-.5 52,-.5 52,-.5 55.5,-.5 59,-4 59,-7.5 59,-7.5 59,-14.5 59,-14.5 59,-18 55.5,-21.5 52,-21.5 52,-21.5 7,-21.5 7,-21.5 3.5,-21.5 0,-18 0,-14.5 0,-14.5 0,-7.5 0,-7.5 0,-4 3.5,-.5 7,-.5"/>
<text text-anchor="middle" x="29.5" y="-7.9" font-family="Times,serif" font-size="12.00" fill="#000000">base64</text>
</g>
<!-- debug -->
<g id="node2" class="node">
<title>debug</title>
<path fill="none" stroke="#000000" stroke-width="1.5" d="M379.5,-.5C379.5,-.5 419.5,-.5 419.5,-.5 423,-.5 426.5,-4 426.5,-7.5 426.5,-7.5 426.5,-14.5 426.5,-14.5 426.5,-18 423,-21.5 419.5,-21.5 419.5,-21.5 379.5,-21.5 379.5,-21.5 376,-21.5 372.5,-18 372.5,-14.5 372.5,-14.5 372.5,-7.5 372.5,-7.5 372.5,-4 376,-.5 379.5,-.5"/>
<text text-anchor="middle" x="399.5" y="-7.9" font-family="Times,serif" font-size="12.00" fill="#000000">debug</text>
</g>
<!-- md5 -->
<g id="node3" class="node">
<title>md5</title>
<path fill="none" stroke="#000000" stroke-width="1.5" d="M447.5,-.5C447.5,-.5 487.5,-.5 487.5,-.5 491,-.5 494.5,-4 494.5,-7.5 494.5,-7.5 494.5,-14.5 494.5,-14.5 494.5,-18 491,-21.5 487.5,-21.5 487.5,-21.5 447.5,-21.5 447.5,-21.5 444,-21.5 440.5,-18 440.5,-14.5 440.5,-14.5 440.5,-7.5 440.5,-7.5 440.5,-4 444,-.5 447.5,-.5"/>
<text text-anchor="middle" x="467.5" y="-7.9" font-family="Times,serif" font-size="12.00" fill="#000000">md5</text>
</g>
<!-- queue -->
<g id="node4" class="node">
<title>queue</title>
<path fill="none" stroke="#000000" stroke-width="1.5" d="M95.5,-.5C95.5,-.5 135.5,-.5 135.5,-.5 139,-.5 142.5,-4 142.5,-7.5 142.5,-7.5 142.5,-14.5 142.5,-14.5 142.5,-18 139,-21.5 135.5,-21.5 135.5,-21.5 95.5,-21.5 95.5,-21.5 92,-21.5 88.5,-18 88.5,-14.5 88.5,-14.5 88.5,-7.5 88.5,-7.5 88.5,-4 92,-.5 95.5,-.5"/>
<text text-anchor="middle" x="115.5" y="-7.9" font-family="Times,serif" font-size="12.00" fill="#000000">queue</text>
</g>
<!-- sha1 -->
<g id="node5" class="node">
<title>sha1</title>
<path fill="none" stroke="#000000" stroke-width="1.5" d="M515.5,-.5C515.5,-.5 555.5,-.5 555.5,-.5 559,-.5 562.5,-4 562.5,-7.5 562.5,-7.5 562.5,-14.5 562.5,-14.5 562.5,-18 559,-21.5 555.5,-21.5 555.5,-21.5 515.5,-21.5 515.5,-21.5 512,-21.5 508.5,-18 508.5,-14.5 508.5,-14.5 508.5,-7.5 508.5,-7.5 508.5,-4 512,-.5 515.5,-.5"/>
<text text-anchor="middle" x="535.5" y="-7.9" font-family="Times,serif" font-size="12.00" fill="#000000">sha1</text>
</g>
<!-- signal -->
<g id="node6" class="node">
<title>signal</title>
<path fill="none" stroke="#000000" stroke-width="1.5" d="M583.5,-.5C583.5,-.5 623.5,-.5 623.5,-.5 627,-.5 630.5,-4 630.5,-7.5 630.5,-7.5 630.5,-14.5 630.5,-14.5 630.5,-18 627,-21.5 623.5,-21.5 623.5,-21.5 583.5,-21.5 583.5,-21.5 580,-21.5 576.5,-18 576.5,-14.5 576.5,-14.5 576.5,-7.5 576.5,-7.5 576.5,-4 580,-.5 583.5,-.5"/>
<text text-anchor="middle" x="603.5" y="-7.9" font-family="Times,serif" font-size="12.00" fill="#000000">signal</text>
</g>
<!-- charset -->
<g id="node7" class="node">
<title>charset</title>
<path fill="none" stroke="#000000" stroke-width="1.5" d="M126.5,-174.5C126.5,-174.5 174.5,-174.5 174.5,-174.5 178,-174.5 181.5,-178 181.5,-181.5 181.5,-181.5 181.5,-188.5 181.5,-188.5 181.5,-192 178,-195.5 174.5,-195.5 174.5,-195.5 126.5,-195.5 126.5,-195.5 123,-195.5 119.5,-192 119.5,-188.5 119.5,-188.5 119.5,-181.5 119.5,-181.5 119.5,-178 123,-174.5 126.5,-174.5"/>
<text text-anchor="middle" x="150.5" y="-181.9" font-family="Times,serif" font-size="12.00" fill="#000000">charset</text>
</g>
<!-- charset&#45;&gt;queue -->
<g id="edge1" class="edge">
<title>charset&#45;&gt;queue</title>
<path fill="none" stroke="#000000" d="M148.3633,-174.3774C142.4463,-144.9614 125.8187,-62.2987 118.7478,-27.1461"/>
<polygon fill="#000000" stroke="#000000" points="120.3998,-26.4844 117.6981,-21.9277 116.9685,-27.1747 120.3998,-26.4844"/>
</g>
<!-- string -->
<g id="node8" class="node">
<title>string</title>
<path fill="none" stroke="#000000" stroke-width="1.5" d="M326.5,-116.5C326.5,-116.5 366.5,-116.5 366.5,-116.5 370,-116.5 373.5,-120 373.5,-123.5 373.5,-123.5 373.5,-130.5 373.5,-130.5 373.5,-134 370,-137.5 366.5,-137.5 366.5,-137.5 326.5,-137.5 326.5,-137.5 323,-137.5 319.5,-134 319.5,-130.5 319.5,-130.5 319.5,-123.5 319.5,-123.5 319.5,-120 323,-116.5 326.5,-116.5"/>
<text text-anchor="middle" x="346.5" y="-123.9" font-family="Times,serif" font-size="12.00" fill="#000000">string</text>
</g>
<!-- charset&#45;&gt;string -->
<g id="edge2" class="edge">
<title>charset&#45;&gt;string</title>
<path fill="none" stroke="#000000" d="M181.5568,-175.8097C217.92,-165.0492 277.8378,-147.3184 314.5722,-136.448"/>
<polygon fill="#000000" stroke="#000000" points="315.0778,-138.1235 319.3757,-135.0266 314.0846,-134.7673 315.0778,-138.1235"/>
</g>
<!-- string&#45;&gt;debug -->
<g id="edge16" class="edge">
<title>string&#45;&gt;debug</title>
<path fill="none" stroke="#000000" d="M352.5807,-116.3333C357.854,-106.91 365.5523,-92.727 371.5,-80 379.8846,-62.0586 388.2606,-40.8823 393.6361,-26.7668"/>
<polygon fill="#000000" stroke="#000000" points="395.3429,-27.2007 395.4752,-21.9049 392.0693,-25.9623 395.3429,-27.2007"/>
</g>
<!-- memory -->
<g id="node16" class="node">
<title>memory</title>
<path fill="none" stroke="#000000" stroke-width="1.5" d="M305.5,-58.5C305.5,-58.5 357.5,-58.5 357.5,-58.5 361,-58.5 364.5,-62 364.5,-65.5 364.5,-65.5 364.5,-72.5 364.5,-72.5 364.5,-76 361,-79.5 357.5,-79.5 357.5,-79.5 305.5,-79.5 305.5,-79.5 302,-79.5 298.5,-76 298.5,-72.5 298.5,-72.5 298.5,-65.5 298.5,-65.5 298.5,-62 302,-58.5 305.5,-58.5"/>
<text text-anchor="middle" x="331.5" y="-65.9" font-family="Times,serif" font-size="12.00" fill="#000000">memory</text>
</g>
<!-- string&#45;&gt;memory -->
<g id="edge17" class="edge">
<title>string&#45;&gt;memory</title>
<path fill="none" stroke="#000000" d="M343.7488,-116.3619C341.444,-107.4502 338.1229,-94.6087 335.5202,-84.5447"/>
<polygon fill="#000000" stroke="#000000" points="337.18,-83.9732 334.2338,-79.5707 333.7915,-84.8496 337.18,-83.9732"/>
</g>
<!-- date -->
<g id="node9" class="node">
<title>date</title>
<path fill="none" stroke="#000000" stroke-width="1.5" d="M448.5,-174.5C448.5,-174.5 488.5,-174.5 488.5,-174.5 492,-174.5 495.5,-178 495.5,-181.5 495.5,-181.5 495.5,-188.5 495.5,-188.5 495.5,-192 492,-195.5 488.5,-195.5 488.5,-195.5 448.5,-195.5 448.5,-195.5 445,-195.5 441.5,-192 441.5,-188.5 441.5,-188.5 441.5,-181.5 441.5,-181.5 441.5,-178 445,-174.5 448.5,-174.5"/>
<text text-anchor="middle" x="468.5" y="-181.9" font-family="Times,serif" font-size="12.00" fill="#000000">date</text>
</g>
<!-- date&#45;&gt;string -->
<g id="edge3" class="edge">
<title>date&#45;&gt;string</title>
<path fill="none" stroke="#000000" d="M446.4067,-174.4966C425.8927,-164.7441 395.3034,-150.2016 373.3809,-139.7794"/>
<polygon fill="#000000" stroke="#000000" points="374.1083,-138.1876 368.8412,-137.6212 372.6055,-141.3486 374.1083,-138.1876"/>
</g>
<!-- file -->
<g id="node10" class="node">
<title>file</title>
<path fill="none" stroke="#000000" stroke-width="1.5" d="M516.5,-174.5C516.5,-174.5 556.5,-174.5 556.5,-174.5 560,-174.5 563.5,-178 563.5,-181.5 563.5,-181.5 563.5,-188.5 563.5,-188.5 563.5,-192 560,-195.5 556.5,-195.5 556.5,-195.5 516.5,-195.5 516.5,-195.5 513,-195.5 509.5,-192 509.5,-188.5 509.5,-188.5 509.5,-181.5 509.5,-181.5 509.5,-178 513,-174.5 516.5,-174.5"/>
<text text-anchor="middle" x="536.5" y="-181.9" font-family="Times,serif" font-size="12.00" fill="#000000">file</text>
</g>
<!-- file&#45;&gt;string -->
<g id="edge4" class="edge">
<title>file&#45;&gt;string</title>
<path fill="none" stroke="#000000" d="M509.4205,-176.1844C507.0817,-175.4395 504.7503,-174.7029 502.5,-174 459.7009,-160.6308 410.0906,-145.7973 378.5148,-136.4391"/>
<polygon fill="#000000" stroke="#000000" points="378.8969,-134.7271 373.6058,-134.9852 377.903,-138.0831 378.8969,-134.7271"/>
</g>
<!-- hash -->
<g id="node11" class="node">
<title>hash</title>
<path fill="none" stroke="#000000" stroke-width="1.5" d="M584.5,-174.5C584.5,-174.5 624.5,-174.5 624.5,-174.5 628,-174.5 631.5,-178 631.5,-181.5 631.5,-181.5 631.5,-188.5 631.5,-188.5 631.5,-192 628,-195.5 624.5,-195.5 624.5,-195.5 584.5,-195.5 584.5,-195.5 581,-195.5 577.5,-192 577.5,-188.5 577.5,-188.5 577.5,-181.5 577.5,-181.5 577.5,-178 581,-174.5 584.5,-174.5"/>
<text text-anchor="middle" x="604.5" y="-181.9" font-family="Times,serif" font-size="12.00" fill="#000000">hash</text>
</g>
<!-- hash&#45;&gt;string -->
<g id="edge5" class="edge">
<title>hash&#45;&gt;string</title>
<path fill="none" stroke="#000000" d="M577.4816,-175.973C575.1295,-175.2741 572.7784,-174.6058 570.5,-174 502.9702,-156.0456 422.5191,-140.5803 378.763,-132.6564"/>
<polygon fill="#000000" stroke="#000000" points="378.8434,-130.8928 373.6122,-131.7278 378.2223,-134.3372 378.8434,-130.8928"/>
</g>
<!-- idna -->
<g id="node12" class="node">
<title>idna</title>
<path fill="none" stroke="#000000" stroke-width="1.5" d="M96.5,-232.5C96.5,-232.5 136.5,-232.5 136.5,-232.5 140,-232.5 143.5,-236 143.5,-239.5 143.5,-239.5 143.5,-246.5 143.5,-246.5 143.5,-250 140,-253.5 136.5,-253.5 136.5,-253.5 96.5,-253.5 96.5,-253.5 93,-253.5 89.5,-250 89.5,-246.5 89.5,-246.5 89.5,-239.5 89.5,-239.5 89.5,-236 93,-232.5 96.5,-232.5"/>
<text text-anchor="middle" x="116.5" y="-239.9" font-family="Times,serif" font-size="12.00" fill="#000000">idna</text>
</g>
<!-- idna&#45;&gt;charset -->
<g id="edge6" class="edge">
<title>idna&#45;&gt;charset</title>
<path fill="none" stroke="#000000" d="M122.7361,-232.3619C128.0561,-223.2867 135.7651,-210.1361 141.7107,-199.9936"/>
<polygon fill="#000000" stroke="#000000" points="143.2845,-200.7692 144.3034,-195.5707 140.265,-198.9991 143.2845,-200.7692"/>
</g>
<!-- mapping -->
<g id="node13" class="node">
<title>mapping</title>
<path fill="none" stroke="#000000" stroke-width="1.5" d="M203,-174.5C203,-174.5 258,-174.5 258,-174.5 261.5,-174.5 265,-178 265,-181.5 265,-181.5 265,-188.5 265,-188.5 265,-192 261.5,-195.5 258,-195.5 258,-195.5 203,-195.5 203,-195.5 199.5,-195.5 196,-192 196,-188.5 196,-188.5 196,-181.5 196,-181.5 196,-178 199.5,-174.5 203,-174.5"/>
<text text-anchor="middle" x="230.5" y="-181.9" font-family="Times,serif" font-size="12.00" fill="#000000">mapping</text>
</g>
<!-- mapping&#45;&gt;string -->
<g id="edge7" class="edge">
<title>mapping&#45;&gt;string</title>
<path fill="none" stroke="#000000" d="M251.5067,-174.4966C270.9302,-164.7849 299.8536,-150.3232 320.679,-139.9105"/>
<polygon fill="#000000" stroke="#000000" points="321.5681,-141.4226 325.2576,-137.6212 320.0028,-138.2921 321.5681,-141.4226"/>
</g>
<!-- mbyte -->
<g id="node14" class="node">
<title>mbyte</title>
<path fill="none" stroke="#000000" stroke-width="1.5" d="M164.5,-232.5C164.5,-232.5 204.5,-232.5 204.5,-232.5 208,-232.5 211.5,-236 211.5,-239.5 211.5,-239.5 211.5,-246.5 211.5,-246.5 211.5,-250 208,-253.5 204.5,-253.5 204.5,-253.5 164.5,-253.5 164.5,-253.5 161,-253.5 157.5,-250 157.5,-246.5 157.5,-246.5 157.5,-239.5 157.5,-239.5 157.5,-236 161,-232.5 164.5,-232.5"/>
<text text-anchor="middle" x="184.5" y="-239.9" font-family="Times,serif" font-size="12.00" fill="#000000">mbyte</text>
</g>
<!-- mbyte&#45;&gt;charset -->
<g id="edge9" class="edge">
<title>mbyte&#45;&gt;charset</title>
<path fill="none" stroke="#000000" d="M178.2639,-232.3619C172.9439,-223.2867 165.2349,-210.1361 159.2893,-199.9936"/>
<polygon fill="#000000" stroke="#000000" points="160.735,-198.9991 156.6966,-195.5707 157.7155,-200.7692 160.735,-198.9991"/>
</g>
<!-- buffer -->
<g id="node15" class="node">
<title>buffer</title>
<path fill="none" stroke="#000000" stroke-width="1.5" d="M286.5,-174.5C286.5,-174.5 326.5,-174.5 326.5,-174.5 330,-174.5 333.5,-178 333.5,-181.5 333.5,-181.5 333.5,-188.5 333.5,-188.5 333.5,-192 330,-195.5 326.5,-195.5 326.5,-195.5 286.5,-195.5 286.5,-195.5 283,-195.5 279.5,-192 279.5,-188.5 279.5,-188.5 279.5,-181.5 279.5,-181.5 279.5,-178 283,-174.5 286.5,-174.5"/>
<text text-anchor="middle" x="306.5" y="-181.9" font-family="Times,serif" font-size="12.00" fill="#000000">buffer</text>
</g>
<!-- mbyte&#45;&gt;buffer -->
<g id="edge8" class="edge">
<title>mbyte&#45;&gt;buffer</title>
<path fill="none" stroke="#000000" d="M206.5933,-232.4966C227.1073,-222.7441 257.6966,-208.2016 279.6191,-197.7794"/>
<polygon fill="#000000" stroke="#000000" points="280.3945,-199.3486 284.1588,-195.6212 278.8917,-196.1876 280.3945,-199.3486"/>
</g>
<!-- buffer&#45;&gt;string -->
<g id="edge18" class="edge">
<title>buffer&#45;&gt;string</title>
<path fill="none" stroke="#000000" d="M313.8366,-174.3619C320.1517,-165.205 329.3284,-151.8988 336.3481,-141.7202"/>
<polygon fill="#000000" stroke="#000000" points="337.8118,-142.6803 339.2099,-137.5707 334.9306,-140.6932 337.8118,-142.6803"/>
</g>
<!-- exit -->
<g id="node17" class="node">
<title>exit</title>
<path fill="none" stroke="#000000" stroke-width="1.5" d="M311.5,-.5C311.5,-.5 351.5,-.5 351.5,-.5 355,-.5 358.5,-4 358.5,-7.5 358.5,-7.5 358.5,-14.5 358.5,-14.5 358.5,-18 355,-21.5 351.5,-21.5 351.5,-21.5 311.5,-21.5 311.5,-21.5 308,-21.5 304.5,-18 304.5,-14.5 304.5,-14.5 304.5,-7.5 304.5,-7.5 304.5,-4 308,-.5 311.5,-.5"/>
<text text-anchor="middle" x="331.5" y="-7.9" font-family="Times,serif" font-size="12.00" fill="#000000">exit</text>
</g>
<!-- memory&#45;&gt;exit -->
<g id="edge10" class="edge">
<title>memory&#45;&gt;exit</title>
<path fill="none" stroke="#000000" d="M331.5,-58.3619C331.5,-49.532 331.5,-36.844 331.5,-26.8224"/>
<polygon fill="#000000" stroke="#000000" points="333.2501,-26.5706 331.5,-21.5707 329.7501,-26.5707 333.2501,-26.5706"/>
</g>
<!-- message -->
<g id="node18" class="node">
<title>message</title>
<path fill="none" stroke="#000000" stroke-width="1.5" d="M229.5,-.5C229.5,-.5 283.5,-.5 283.5,-.5 287,-.5 290.5,-4 290.5,-7.5 290.5,-7.5 290.5,-14.5 290.5,-14.5 290.5,-18 287,-21.5 283.5,-21.5 283.5,-21.5 229.5,-21.5 229.5,-21.5 226,-21.5 222.5,-18 222.5,-14.5 222.5,-14.5 222.5,-7.5 222.5,-7.5 222.5,-4 226,-.5 229.5,-.5"/>
<text text-anchor="middle" x="256.5" y="-7.9" font-family="Times,serif" font-size="12.00" fill="#000000">message</text>
</g>
<!-- memory&#45;&gt;message -->
<g id="edge11" class="edge">
<title>memory&#45;&gt;message</title>
<path fill="none" stroke="#000000" d="M317.7438,-58.3619C305.4801,-48.8779 287.4609,-34.9431 274.1404,-24.6419"/>
<polygon fill="#000000" stroke="#000000" points="275.1948,-23.2451 270.1689,-21.5707 273.0537,-26.0138 275.1948,-23.2451"/>
</g>
<!-- parameter -->
<g id="node19" class="node">
<title>parameter</title>
<path fill="none" stroke="#000000" stroke-width="1.5" d="M354.5,-174.5C354.5,-174.5 420.5,-174.5 420.5,-174.5 424,-174.5 427.5,-178 427.5,-181.5 427.5,-181.5 427.5,-188.5 427.5,-188.5 427.5,-192 424,-195.5 420.5,-195.5 420.5,-195.5 354.5,-195.5 354.5,-195.5 351,-195.5 347.5,-192 347.5,-188.5 347.5,-188.5 347.5,-181.5 347.5,-181.5 347.5,-178 351,-174.5 354.5,-174.5"/>
<text text-anchor="middle" x="387.5" y="-181.9" font-family="Times,serif" font-size="12.00" fill="#000000">parameter</text>
</g>
<!-- parameter&#45;&gt;string -->
<g id="edge12" class="edge">
<title>parameter&#45;&gt;string</title>
<path fill="none" stroke="#000000" d="M379.98,-174.3619C373.507,-165.205 364.1009,-151.8988 356.9057,-141.7202"/>
<polygon fill="#000000" stroke="#000000" points="358.2876,-140.6434 353.9724,-137.5707 355.4296,-142.6637 358.2876,-140.6434"/>
</g>
<!-- regex -->
<g id="node20" class="node">
<title>regex</title>
<path fill="none" stroke="#000000" stroke-width="1.5" d="M94.5,-290.5C94.5,-290.5 134.5,-290.5 134.5,-290.5 138,-290.5 141.5,-294 141.5,-297.5 141.5,-297.5 141.5,-304.5 141.5,-304.5 141.5,-308 138,-311.5 134.5,-311.5 134.5,-311.5 94.5,-311.5 94.5,-311.5 91,-311.5 87.5,-308 87.5,-304.5 87.5,-304.5 87.5,-297.5 87.5,-297.5 87.5,-294 91,-290.5 94.5,-290.5"/>
<text text-anchor="middle" x="114.5" y="-297.9" font-family="Times,serif" font-size="12.00" fill="#000000">regex</text>
</g>
<!-- regex&#45;&gt;mbyte -->
<g id="edge13" class="edge">
<title>regex&#45;&gt;mbyte</title>
<path fill="none" stroke="#000000" d="M127.3391,-290.3619C138.6866,-280.9597 155.3136,-267.183 167.7131,-256.9092"/>
<polygon fill="#000000" stroke="#000000" points="169.0087,-258.1083 171.7423,-253.5707 166.7756,-255.4132 169.0087,-258.1083"/>
</g>
<!-- rfc2047 -->
<g id="node21" class="node">
<title>rfc2047</title>
<path fill="none" stroke="#000000" stroke-width="1.5" d="M28.5,-348.5C28.5,-348.5 78.5,-348.5 78.5,-348.5 82,-348.5 85.5,-352 85.5,-355.5 85.5,-355.5 85.5,-362.5 85.5,-362.5 85.5,-366 82,-369.5 78.5,-369.5 78.5,-369.5 28.5,-369.5 28.5,-369.5 25,-369.5 21.5,-366 21.5,-362.5 21.5,-362.5 21.5,-355.5 21.5,-355.5 21.5,-352 25,-348.5 28.5,-348.5"/>
<text text-anchor="middle" x="53.5" y="-355.9" font-family="Times,serif" font-size="12.00" fill="#000000">rfc2047</text>
</g>
<!-- rfc2047&#45;&gt;base64 -->
<g id="edge14" class="edge">
<title>rfc2047&#45;&gt;base64</title>
<path fill="none" stroke="#000000" d="M49.75,-348.2785C43,-327.9928 29.5,-282.4856 29.5,-243 29.5,-243 29.5,-243 29.5,-127 29.5,-91.1685 29.5,-49.1112 29.5,-26.79"/>
<polygon fill="#000000" stroke="#000000" points="31.2501,-26.5561 29.5,-21.5561 27.7501,-26.5561 31.2501,-26.5561"/>
</g>
<!-- rfc2047&#45;&gt;regex -->
<g id="edge15" class="edge">
<title>rfc2047&#45;&gt;regex</title>
<path fill="none" stroke="#000000" d="M64.6883,-348.3619C74.4909,-339.0415 88.8145,-325.4223 99.5887,-315.178"/>
<polygon fill="#000000" stroke="#000000" points="100.9649,-316.2842 103.3826,-311.5707 98.5532,-313.7478 100.9649,-316.2842"/>
</g>
<!-- list -->
<g id="node22" class="node">
<title>list</title>
<path fill="none" stroke="#000000" stroke-width="1.5" d="M58.5,-174.5C58.5,-174.5 98.5,-174.5 98.5,-174.5 102,-174.5 105.5,-178 105.5,-181.5 105.5,-181.5 105.5,-188.5 105.5,-188.5 105.5,-192 102,-195.5 98.5,-195.5 98.5,-195.5 58.5,-195.5 58.5,-195.5 55,-195.5 51.5,-192 51.5,-188.5 51.5,-188.5 51.5,-181.5 51.5,-181.5 51.5,-178 55,-174.5 58.5,-174.5"/>
<text text-anchor="middle" x="78.5" y="-181.9" font-family="Times,serif" font-size="12.00" fill="#000000">list</text>
</g>
<!-- list&#45;&gt;queue -->
<g id="edge19" class="edge">
<title>list&#45;&gt;queue</title>
<path fill="none" stroke="#000000" d="M80.7588,-174.3774C87.014,-144.9614 104.5916,-62.2987 112.0666,-27.1461"/>
<polygon fill="#000000" stroke="#000000" points="113.848,-27.1824 113.1763,-21.9277 110.4245,-26.4544 113.848,-27.1824"/>
</g>
<!-- list&#45;&gt;string -->
<g id="edge20" class="edge">
<title>list&#45;&gt;string</title>
<path fill="none" stroke="#000000" d="M105.5128,-175.9516C107.8661,-175.2573 110.219,-174.596 112.5,-174 183.7223,-155.3916 268.7832,-139.9759 314.1769,-132.2832"/>
<polygon fill="#000000" stroke="#000000" points="314.6061,-133.9856 319.2454,-131.4284 314.024,-130.5343 314.6061,-133.9856"/>
</g>
</g>
</svg>
